# xmcd
# 
# Track frame offsets:
#     192
#     10917
#     27730
#     44255
#     62857
#     76112
#     89225
#     101607
#     114535
#     129235
#     145727
# 
# Disc length: 2164
# 
# Revision: 12
# Processed by: cddbd v1.5.2PL0 Copyright (c) Steve Scherf et al.
# Submitted via: fre:ac v1.0.31
# 
DISCID=9208720b
DTITLE=The Commitments - The Commitments Vol.2
DYEAR=1992
DGENRE=Soundtrack
TTITLE0=Hard to Handle
TTITLE1=Grits Ain't Groceries
TTITLE2=I Thank You
TTITLE3=That's the Way Love Is
TTITLE4=Show Me
TTITLE5=Saved
TTITLE6=Too Many Fish in the Sea
TTITLE7=Fa-Fa-Fa-Fa-Fa (Sad Song)
TTITLE8=Land of a Thousand Dances
TTITLE9=Nowhere to Run
TTITLE10=Bring It on Home to Me
EXTD=
EXTT0=
EXTT1=
EXTT2=
EXTT3=
EXTT4=
EXTT5=
EXTT6=
EXTT7=
EXTT8=
EXTT9=
EXTT10=
PLAYORDER=
